<svg version="1.1" xmlns="http://www.w3.org/2000/svg" xmlns:xlink="http://www.w3.org/1999/xlink" x="0px" y="0px" viewBox="0 0 512 512" style="enable-background:new 0 0 512 512;" xml:space="preserve">
<g id="_x33_17_x2C__Email_x2C__Mail_x2C__Message">
<g id="XMLID_27666_">
<g id="XMLID_27667_">
<g id="XMLID_37806_">
<g id="XMLID_27669_">
<path id="XMLID_27670_" style="fill: rgb(100, 197, 232);" d="M470,142v236c0,12.15-9.85,22-22,22H72c-12.15,0-22-9.85-22-22V142
						c0-12.15,9.85-22,22-22h376C460.15,120,470,129.85,470,142z"></path>
</g>
</g>
<g id="XMLID_27668_">
<g id="XMLID_27671_">
<path id="XMLID_27672_" d="M448,410H72c-17.645,0-32-14.355-32-32V142c0-17.645,14.355-32,32-32h376c17.645,0,32,14.355,32,32
						v236C480,395.645,465.645,410,448,410z M72,130c-6.617,0-12,5.383-12,12v236c0,6.617,5.383,12,12,12h376
						c6.617,0,12-5.383,12-12V142c0-6.617-5.383-12-12-12H72z"></path>
</g>
<g id="XMLID_27675_">
<path id="XMLID_27676_" d="M260,300.77c-2.305,0-4.609-0.794-6.477-2.381L99.673,167.62c-4.208-3.577-4.72-9.888-1.143-14.096
						c3.578-4.208,9.889-4.718,14.096-1.143L260,277.646L407.373,152.38c4.208-3.577,10.52-3.064,14.096,1.143
						c3.577,4.208,3.065,10.519-1.143,14.096l-153.85,130.769C264.609,299.976,262.305,300.77,260,300.77z"></path>
</g>
<g id="XMLID_27677_">
<path id="XMLID_27678_" d="M106.147,370c-2.436,0-4.876-0.884-6.802-2.672c-4.047-3.759-4.281-10.086-0.523-14.133l100-107.69
						c3.758-4.047,10.085-4.281,14.132-0.523c4.047,3.758,4.281,10.085,0.523,14.132l-100,107.69
						C111.508,368.926,108.831,370,106.147,370z"></path>
</g>
<g id="XMLID_27679_">
<path id="XMLID_27680_" d="M413.852,370c-2.684,0-5.359-1.073-7.33-3.195l-100-107.69c-3.758-4.047-3.523-10.374,0.523-14.132
						c4.048-3.759,10.373-3.524,14.133,0.523l100,107.69c3.758,4.047,3.523,10.374-0.523,14.133
						C418.728,369.115,416.287,370,413.852,370z"></path>
</g>
</g>
</g>
</g>
</g>
<g id="Layer_1">
</g>
</svg>