<?xml version="1.0" encoding="UTF-8" standalone="no"?> <svg id="_1_-_10" data-name="1 - 10" xmlns="http://www.w3.org/2000/svg" viewBox="0 0 48 48"><defs><style>.cls-1{fill:#009ae0;}.cls-2{fill:#0081bd;}.cls-3{fill:#eaeff0;}.cls-4{fill:#d9e1e2;}.cls-5{fill:#8fa5a5;}.cls-6{fill:#7b8c8c;}</style></defs><title>Book</title><g id="Book"><path class="cls-1" d="M44,10H4a2,2,0,0,0-2,2V35.071a2.007,2.007,0,0,0,1.838,1.993c1.735.136,5.08.436,8,.922A17.546,17.546,0,0,1,19.88,41.35a2.977,2.977,0,0,0,1.864.65h4.512a2.984,2.984,0,0,0,1.864-.649,17.533,17.533,0,0,1,8.045-3.365c2.917-.486,6.262-.786,8-.922A2.007,2.007,0,0,0,46,35.071V12A2,2,0,0,0,44,10Z"/><path class="cls-2" d="M28.12,41.351a17.533,17.533,0,0,1,8.045-3.365c2.917-.486,6.262-.786,8-.922a1.984,1.984,0,0,0,1.284-.618L41,32H7L2.554,36.446a1.984,1.984,0,0,0,1.284.618c1.735.136,5.08.436,8,.922A17.546,17.546,0,0,1,19.88,41.35a2.977,2.977,0,0,0,1.864.65h4.512A2.984,2.984,0,0,0,28.12,41.351Z"/><path class="cls-3" d="M41,6a51.621,51.621,0,0,0-9.2,1.02A18.266,18.266,0,0,0,24,10.669,18.266,18.266,0,0,0,16.2,7.02,51.621,51.621,0,0,0,7,6,1,1,0,0,0,6,7V32a1,1,0,0,0,1,1,50.639,50.639,0,0,1,8.8.98,16.034,16.034,0,0,1,7.49,3.728,1,1,0,0,0,1.413,0A15.89,15.89,0,0,1,32.2,33.98,50.639,50.639,0,0,1,41,33a1,1,0,0,0,1-1V7A1,1,0,0,0,41,6Z"/><path class="cls-4" d="M24.707,37.707A15.085,15.085,0,0,1,29,34.982V7.828a18.276,18.276,0,0,0-5,2.841V38A1,1,0,0,0,24.707,37.707Z"/><path class="cls-4" d="M11,6.243C8.653,6.005,7.1,6,7,6A1,1,0,0,0,6,7V32a1,1,0,0,0,1,1c.024,0,1.613.006,4,.256Z"/><path class="cls-5" d="M20,30.34a1,1,0,0,1-.434-.1A15.977,15.977,0,0,0,15.8,28.98c-1.541-.308-3.192-.556-4.9-.735a1,1,0,0,1,.208-1.99c1.774.186,3.488.443,5.092.765a17.955,17.955,0,0,1,4.238,1.419A1,1,0,0,1,20,30.34Z"/><path class="cls-5" d="M20.9,24.774a1,1,0,0,0-.467-1.335A17.955,17.955,0,0,0,16.2,22.02c-1.6-.322-3.318-.579-5.092-.765a1,1,0,1,0-.208,1.99c1.713.179,3.364.427,4.9.735a15.977,15.977,0,0,1,3.765,1.261,1,1,0,0,0,1.335-.467Z"/><path class="cls-5" d="M20.9,19.774a1,1,0,0,0-.467-1.335A17.955,17.955,0,0,0,16.2,17.02c-1.6-.322-3.318-.579-5.092-.765a1,1,0,1,0-.208,1.99c1.713.179,3.364.427,4.9.735a15.977,15.977,0,0,1,3.765,1.261,1,1,0,0,0,1.335-.467Z"/><path class="cls-5" d="M20.9,14.774a1,1,0,0,0-.467-1.335A17.955,17.955,0,0,0,16.2,12.02c-1.6-.322-3.318-.579-5.092-.765a1,1,0,0,0-.208,1.99c1.713.179,3.364.427,4.9.735a15.977,15.977,0,0,1,3.765,1.261,1,1,0,0,0,1.335-.467Z"/><path class="cls-6" d="M10.005,17.146a1,1,0,0,0,.891,1.1c.035,0,.069.009.1.013V16.266A.994.994,0,0,0,10.005,17.146Z"/><path class="cls-6" d="M11,26.266a.992.992,0,0,0-.1,1.979c.035,0,.069.009.1.013Z"/><path class="cls-6" d="M10.005,12.146a1,1,0,0,0,.891,1.1c.035,0,.069.009.1.013V11.266A.994.994,0,0,0,10.005,12.146Z"/><path class="cls-6" d="M10.9,23.245c.035,0,.069.009.1.013V21.266a.992.992,0,0,0-.1,1.979Z"/><path class="cls-5" d="M28,30.34a1,1,0,0,1-.434-1.9A17.978,17.978,0,0,1,31.8,27.02c1.607-.322,3.321-.579,5.1-.765a1,1,0,0,1,.208,1.99c-1.713.179-3.364.427-4.908.735a16,16,0,0,0-3.762,1.261A1,1,0,0,1,28,30.34Z"/><path class="cls-5" d="M28.434,25.241A16,16,0,0,1,32.2,23.98c1.544-.308,3.2-.556,4.908-.735a1,1,0,0,0-.208-1.99c-1.774.186-3.488.443-5.1.765a17.978,17.978,0,0,0-4.235,1.419,1,1,0,0,0,.868,1.8Z"/><path class="cls-5" d="M28.434,20.241A16,16,0,0,1,32.2,18.98c1.544-.308,3.2-.556,4.908-.735a1,1,0,0,0-.208-1.99c-1.774.186-3.488.443-5.1.765a17.978,17.978,0,0,0-4.235,1.419,1,1,0,0,0,.868,1.8Z"/><path class="cls-5" d="M28.434,15.241A16,16,0,0,1,32.2,13.98c1.544-.308,3.2-.556,4.908-.735a1,1,0,0,0-.208-1.99c-1.774.186-3.488.443-5.1.765a17.978,17.978,0,0,0-4.235,1.419,1,1,0,0,0,.868,1.8Z"/><path class="cls-6" d="M29,27.834c-.487.184-.968.38-1.434.605a1,1,0,0,0,.868,1.8c.186-.09.377-.169.566-.251Z"/><path class="cls-6" d="M27.1,19.774a1,1,0,0,0,1.335.467c.186-.09.377-.169.566-.251V17.834c-.487.184-.968.38-1.434.605A1,1,0,0,0,27.1,19.774Z"/><path class="cls-6" d="M27.566,13.439a1,1,0,0,0,.868,1.8c.186-.09.377-.169.566-.251V12.834C28.513,13.018,28.032,13.214,27.566,13.439Z"/><path class="cls-6" d="M27.1,24.774a1,1,0,0,0,1.335.467c.186-.09.377-.169.566-.251V22.834c-.487.184-.968.38-1.434.605A1,1,0,0,0,27.1,24.774Z"/></g></svg>