<?xml version="1.0" encoding="UTF-8" standalone="no"?> <svg width="512" height="512" viewBox="0 0 512 512" fill="none" xmlns="http://www.w3.org/2000/svg">
<path d="M326.421 436.489L295.206 53.7603C294.516 45.3014 290.494 37.4631 284.025 31.9696C277.556 26.4761 269.169 23.7774 260.71 24.4673L53.3988 41.3758C44.94 42.0657 37.1017 46.0876 31.6082 52.5568C26.1148 59.0259 23.4161 67.4123 24.106 75.8711L55.3215 458.6C55.6631 462.789 56.8263 466.869 58.7448 470.608C60.6632 474.347 63.2992 477.671 66.5024 480.391C69.7056 483.111 73.4132 485.174 77.4135 486.461C81.4138 487.748 85.6285 488.235 89.8168 487.893L297.129 470.985C301.317 470.643 305.397 469.48 309.136 467.561C312.875 465.643 316.199 463.007 318.919 459.804C321.639 456.601 323.702 452.893 324.989 448.893C326.276 444.892 326.763 440.678 326.421 436.489V436.489Z" fill="#FFD576"/>
<path d="M265.913 88.2539L58.6016 105.162L74.8595 304.5L282.171 287.592L265.913 88.2539Z" fill="#F49971"/>
<path d="M222.147 43.6657L220.846 27.7188L93.2695 38.124L94.5701 54.071C94.7409 56.1652 95.3226 58.2052 96.2818 60.0747C97.241 61.9441 98.559 63.6062 100.161 64.9663C101.762 66.3263 103.616 67.3576 105.616 68.0012C107.616 68.6448 109.724 68.8881 111.818 68.7173L207.5 60.9136C211.73 60.5686 215.649 58.5576 218.395 55.323C221.142 52.0884 222.491 47.8952 222.147 43.6657V43.6657Z" fill="#F4C36E"/>
<path d="M134.057 267.484C127.864 267.474 121.915 265.07 117.454 260.775C112.992 256.48 110.363 250.627 110.117 244.439C109.87 238.252 112.025 232.208 116.131 227.572C120.236 222.936 125.975 220.066 132.147 219.563L140.12 218.912L134.918 155.124C134.768 153.281 135.26 151.442 136.313 149.921C137.365 148.401 138.912 147.291 140.69 146.782L219.124 124.332C220.262 124.006 221.458 123.937 222.626 124.13C223.794 124.322 224.905 124.772 225.878 125.445C226.851 126.119 227.663 127 228.255 128.025C228.846 129.05 229.203 130.193 229.3 131.373L236.453 219.082C236.839 223.813 235.813 228.552 233.505 232.7C231.198 236.848 227.712 240.219 223.489 242.386C219.265 244.553 214.494 245.419 209.779 244.874C205.064 244.33 200.616 242.399 196.997 239.326C193.379 236.254 190.754 232.177 189.452 227.613C188.151 223.048 188.232 218.2 189.686 213.681C191.14 209.162 193.902 205.177 197.621 202.227C201.34 199.278 205.851 197.498 210.582 197.112L218.555 196.462L214.146 142.399L151.398 160.36L158.018 241.532C158.275 244.674 157.91 247.835 156.944 250.835C155.979 253.835 154.432 256.616 152.392 259.018C150.352 261.421 147.858 263.398 145.054 264.836C142.25 266.275 139.19 267.147 136.048 267.403C135.382 267.458 134.718 267.485 134.057 267.484ZM141.421 234.859L133.448 235.51C131.871 235.638 130.367 236.232 129.127 237.215C127.888 238.198 126.967 239.526 126.483 241.033C125.998 242.539 125.971 244.155 126.405 245.676C126.838 247.198 127.714 248.557 128.92 249.581C130.126 250.605 131.608 251.248 133.18 251.43C134.752 251.611 136.342 251.323 137.75 250.601C139.157 249.878 140.319 248.755 141.089 247.372C141.858 245.99 142.2 244.41 142.071 242.833L141.421 234.859ZM219.855 212.409L211.882 213.06C210.305 213.188 208.802 213.782 207.562 214.765C206.322 215.748 205.402 217.076 204.917 218.582C204.433 220.088 204.405 221.704 204.839 223.226C205.273 224.748 206.148 226.106 207.354 227.131C208.56 228.155 210.043 228.798 211.615 228.98C213.186 229.161 214.777 228.873 216.184 228.15C217.592 227.428 218.754 226.305 219.523 224.922C220.292 223.539 220.634 221.96 220.506 220.383L219.855 212.409Z" fill="#FFC8BB"/>
<path d="M296.001 358.703L72.7422 376.914L74.043 392.861L297.302 374.651L296.001 358.703Z" fill="#F49971"/>
<path d="M135.877 363.737L119.93 365.037L122.531 396.931L138.478 395.63L135.877 363.737Z" fill="#F49971"/>
<path d="M178.998 400.354L163.051 401.654L166.953 449.495L182.9 448.194L178.998 400.354Z" fill="#F49971"/>
<path d="M210.893 397.752L194.945 399.053L198.847 446.894L214.794 445.593L210.893 397.752Z" fill="#F49971"/>
<path d="M196.416 318.666L68.8398 329.072L70.1406 345.02L197.717 334.613L196.416 318.666Z" fill="#F4C36E"/>
<path d="M299.902 406.545L268.008 409.146L269.309 425.094L301.203 422.492L299.902 406.545Z" fill="#F4C36E"/>
<path d="M116.508 421.502L76.6406 424.754L77.9414 440.701L117.809 437.449L116.508 421.502Z" fill="#F4C36E"/>
<path d="M292.096 310.863L268.176 312.814L269.477 328.762L293.397 326.811L292.096 310.863Z" fill="#F4C36E"/>
<path d="M487.386 207.485C486.018 214.392 482.411 220.655 477.123 225.305C471.836 229.955 465.163 232.732 458.138 233.206C454.858 233.472 451.741 234.75 449.219 236.863C446.696 238.977 444.893 241.821 444.056 245.004L428.609 301.6L397.738 293.174L425.122 192.844C427.305 184.845 432.507 178.006 439.632 173.767C446.757 169.528 455.249 168.22 463.32 170.117C471.391 172.015 478.41 176.971 482.899 183.942C487.388 190.912 488.997 199.352 487.386 207.485V207.485Z" fill="#689CDA"/>
<path d="M353.706 56.9346C351.43 63.598 351.416 70.8257 353.663 77.4985C355.911 84.1713 360.295 89.917 366.139 93.846C368.844 95.7189 370.902 98.3858 372.027 101.478C373.151 104.571 373.288 107.936 372.418 111.11L357.442 167.832L388.382 176.001L414.93 75.4465C417.047 67.4305 415.97 58.9058 411.926 51.6681C407.882 44.4304 401.187 39.0445 393.251 36.645C385.315 34.2455 376.758 35.0196 369.381 38.8042C362.005 42.5889 356.385 49.0887 353.706 56.9346V56.9346Z" fill="#689CDA"/>
<path d="M479.922 423.598L472.768 335.889C472.672 334.709 472.315 333.565 471.723 332.54C471.131 331.515 470.319 330.634 469.346 329.961C468.373 329.287 467.262 328.838 466.094 328.646C464.927 328.453 463.731 328.522 462.593 328.848L384.158 351.298C382.38 351.807 380.833 352.916 379.781 354.437C378.729 355.958 378.236 357.796 378.386 359.64L383.589 423.428L375.615 424.078C369.44 424.582 363.7 427.454 359.595 432.093C355.489 436.732 353.336 442.778 353.586 448.968C353.836 455.158 356.47 461.011 360.936 465.304C365.402 469.596 371.355 471.996 377.55 472C378.201 472 378.858 471.974 379.518 471.92C385.859 471.395 391.733 468.377 395.852 463.526C399.971 458.676 401.997 452.39 401.487 446.048L398.249 406.351L460.762 385.513L462.023 400.978L454.049 401.628C449.318 402.014 444.808 403.794 441.088 406.744C437.369 409.693 434.608 413.679 433.154 418.198C431.7 422.716 431.619 427.565 432.92 432.13C434.222 436.694 436.848 440.771 440.466 443.843C444.084 446.916 448.532 448.846 453.248 449.391C457.963 449.935 462.734 449.069 466.958 446.902C471.181 444.735 474.667 441.364 476.974 437.216C479.282 433.068 480.308 428.329 479.922 423.598ZM378.217 455.973C376.104 456.143 374.009 455.467 372.393 454.094C370.777 452.721 369.773 450.762 369.601 448.649C369.428 446.536 370.102 444.44 371.473 442.823C372.845 441.206 374.803 440.2 376.916 440.025L384.89 439.375L385.54 447.349C385.71 449.463 385.034 451.558 383.662 453.175C382.289 454.791 380.331 455.798 378.217 455.973V455.973ZM396.91 389.931L394.867 364.876L457.614 346.915L459.423 369.093L396.91 389.931ZM456.652 433.522C454.537 433.695 452.44 433.02 450.823 431.647C449.206 430.274 448.2 428.314 448.027 426.199C447.855 424.085 448.53 421.988 449.903 420.371C451.276 418.753 453.236 417.748 455.35 417.575L463.324 416.925L463.974 424.898C464.144 427.013 463.469 429.108 462.096 430.725C460.723 432.341 458.765 433.347 456.652 433.522V433.522Z" fill="#F49971"/>
</svg>
