<?xml version="1.0" encoding="UTF-8" standalone="no"?> <svg id="Layer_1" data-name="Layer 1" xmlns="http://www.w3.org/2000/svg" viewBox="0 0 512 512"><defs><style>.cls-1{fill:#ce7149;}.cls-2{fill:#60301f;}.cls-2,.cls-4{opacity:0.25;}.cls-3{fill:#2ecc71;}.cls-4{fill:#105e30;}</style></defs><title>Forest</title><path class="cls-1" d="M352,330.667h42.665a10.667,10.667,0,0,1,10.667,10.667v85.334a10.666,10.666,0,0,1-10.666,10.666H352a10.666,10.666,0,0,1-10.666-10.666V341.333A10.666,10.666,0,0,1,352,330.667Z"/><path class="cls-2" d="M341.338,341.333v85.333A10.667,10.667,0,0,0,352,437.333h21.333V330.667H352A10.667,10.667,0,0,0,341.338,341.333Z"/><path class="cls-3" d="M471.832,258.008A48,48,0,0,0,455.5,186.76,42.668,42.668,0,0,0,416,127.971c-.448,0-.892.02-1.337.034a42.672,42.672,0,1,0-82.656,0c-.463-.015-.925-.035-1.391-.035a42.669,42.669,0,0,0-39.491,58.82,48,48,0,0,0-16.292,71.223,53.2,53.2,0,0,0-18.828,40.652h0A53.335,53.335,0,0,0,309.342,352h127.99a53.335,53.335,0,0,0,53.335-53.334h0A53.2,53.2,0,0,0,471.832,258.008Z"/><path class="cls-4" d="M417.36,229.33a58.474,58.474,0,0,0-23.906-47.258,53.369,53.369,0,0,0-41.434-63.7q.011-.518.01-1.036a53.031,53.031,0,0,0-9.165-29.862,42.725,42.725,0,0,0-10.857,40.529c-.463-.015-.925-.035-1.391-.035a42.669,42.669,0,0,0-39.491,58.82,48,48,0,0,0-16.292,71.223,53.2,53.2,0,0,0-18.828,40.652h0A53.335,53.335,0,0,0,309.342,352h88.67a63.947,63.947,0,0,0,12.739-95.581A58.21,58.21,0,0,0,417.36,229.33Z"/><path class="cls-1" d="M117.331,330.667H160a10.667,10.667,0,0,1,10.667,10.667v85.334A10.666,10.666,0,0,1,160,437.333H117.331a10.667,10.667,0,0,1-10.667-10.667V341.333A10.667,10.667,0,0,1,117.331,330.667Z"/><path class="cls-2" d="M106.664,341.333v85.333a10.667,10.667,0,0,0,10.666,10.667h21.333V330.667H117.331A10.667,10.667,0,0,0,106.664,341.333Z"/><path class="cls-3" d="M237.158,258.008a48,48,0,0,0-16.327-71.248,42.668,42.668,0,0,0-39.5-58.789c-.448,0-.892.02-1.337.034a42.672,42.672,0,1,0-82.656,0c-.463-.015-.925-.035-1.391-.035a42.669,42.669,0,0,0-39.491,58.82,48,48,0,0,0-16.292,71.223,53.2,53.2,0,0,0-18.828,40.652h0A53.335,53.335,0,0,0,74.669,352h127.99a53.335,53.335,0,0,0,53.335-53.334h0A53.2,53.2,0,0,0,237.158,258.008Z"/><path class="cls-4" d="M64,298.666h0a53.2,53.2,0,0,1,18.828-40.652,48,48,0,0,1,16.292-71.223,42.669,42.669,0,0,1,39.491-58.82c.467,0,.928.02,1.391.035A42.72,42.72,0,0,1,160,80.388a42.69,42.69,0,0,0-62.661,47.618c-.463-.015-.925-.035-1.391-.035a42.669,42.669,0,0,0-39.491,58.82,48,48,0,0,0-16.292,71.223,53.2,53.2,0,0,0-18.828,40.652h0A53.335,53.335,0,0,0,74.669,352h42.666A53.335,53.335,0,0,1,64,298.666Z"/><path class="cls-1" d="M234.667,320h42.665A10.667,10.667,0,0,1,288,330.667V437.334A10.666,10.666,0,0,1,277.333,448H234.668A10.667,10.667,0,0,1,224,437.333V330.666A10.666,10.666,0,0,1,234.667,320Z"/><path class="cls-2" d="M256,320H234.667A10.667,10.667,0,0,0,224,330.667V437.333A10.667,10.667,0,0,0,234.667,448H256Z"/><path class="cls-3" d="M368.059,256.419a58.715,58.715,0,0,0-17.3-74.347,53.369,53.369,0,0,0-41.434-63.7q.011-.518.01-1.036a53.339,53.339,0,0,0-106.677,0q0,.512.009,1.026a53.373,53.373,0,0,0-41.479,63.75,58.715,58.715,0,0,0-17.257,74.312A63.99,63.99,0,0,0,192,362.667h127.99a63.99,63.99,0,0,0,48.064-106.247Z"/><path class="cls-4" d="M170.7,298.666a63.874,63.874,0,0,1,15.932-42.24,58.715,58.715,0,0,1,17.257-74.312,53.373,53.373,0,0,1,41.479-63.75q-.009-.513-.009-1.026a53.408,53.408,0,0,1,31.992-48.866,53.312,53.312,0,0,0-74.685,48.866q0,.512.009,1.026a53.373,53.373,0,0,0-41.479,63.75,58.715,58.715,0,0,0-17.257,74.312A63.99,63.99,0,0,0,192,362.667H234.7A64.073,64.073,0,0,1,170.7,298.666Z"/></svg>