<svg width="64" height="64" viewBox="0 0 64 64" fill="none" xmlns="http://www.w3.org/2000/svg">
<path d="M43 3H21C16.2261 3 11.6477 4.89642 8.27208 8.27208C4.89642 11.6477 3 16.2261 3 21H19V19C19 17.4087 19.6321 15.8826 20.7574 14.7574C21.8826 13.6321 23.4087 13 25 13H39C40.5913 13 42.1174 13.6321 43.2426 14.7574C44.3679 15.8826 45 17.4087 45 19V21H61C61 16.2261 59.1036 11.6477 55.7279 8.27208C52.3523 4.89642 47.7739 3 43 3V3Z" fill="#4fc4db" id="id_101"></path>
<path d="M54.1 32.414C53.9748 32.0052 53.7218 31.6473 53.3782 31.3929C53.0346 31.1384 52.6186 31.0007 52.191 31H48.747C47.574 31.0001 46.4153 30.7423 45.353 30.2448C44.2908 29.7472 43.3509 29.0222 42.6 28.121L41.2 26.439C40.8246 25.9886 40.3547 25.6262 39.8237 25.3775C39.2926 25.1288 38.7134 25 38.127 25H25.873C25.2866 25 24.7074 25.1288 24.1764 25.3775C23.6453 25.6262 23.1755 25.9886 22.8 26.439L21.4 28.121C20.6491 29.0222 19.7093 29.7472 18.647 30.2448C17.5847 30.7423 16.426 31.0001 15.253 31H11.809C11.3815 31.0007 10.9654 31.1384 10.6218 31.3929C10.2783 31.6473 10.0253 32.0052 9.90002 32.414L3.75002 55.74C3.55041 56.3414 3.49655 56.9817 3.59286 57.608C3.68917 58.2343 3.93291 58.8288 4.304 59.3424C4.67508 59.8561 5.16289 60.2742 5.72724 60.5624C6.2916 60.8506 6.91634 61.0006 7.55002 61H56.45C57.0837 61.0006 57.7084 60.8506 58.2728 60.5624C58.8372 60.2742 59.325 59.8561 59.696 59.3424C60.0671 58.8288 60.3109 58.2343 60.4072 57.608C60.5035 56.9817 60.4496 56.3414 60.25 55.74L54.1 32.414ZM32 57C29.2311 57 26.5243 56.1789 24.222 54.6406C21.9198 53.1022 20.1253 50.9157 19.0657 48.3576C18.0061 45.7994 17.7288 42.9845 18.269 40.2687C18.8092 37.553 20.1426 35.0584 22.1005 33.1005C24.0585 31.1426 26.553 29.8092 29.2688 29.269C31.9845 28.7288 34.7994 29.0061 37.3576 30.0657C39.9158 31.1253 42.1023 32.9197 43.6406 35.222C45.1789 37.5243 46 40.2311 46 43C46 46.713 44.525 50.274 41.8995 52.8995C39.274 55.525 35.7131 57 32 57V57Z" fill="#4cc3db" id="id_102"></path>
<path d="M32 36C33.1046 36 34 35.1046 34 34C34 32.8954 33.1046 32 32 32C30.8954 32 30 32.8954 30 34C30 35.1046 30.8954 36 32 36Z" fill="#9BC9FF" id="id_103"></path>
<path d="M25.636 38.636C26.7406 38.636 27.636 37.7406 27.636 36.636C27.636 35.5314 26.7406 34.636 25.636 34.636C24.5314 34.636 23.636 35.5314 23.636 36.636C23.636 37.7406 24.5314 38.636 25.636 38.636Z" fill="#9BC9FF" id="id_104"></path>
<path d="M23 45C24.1046 45 25 44.1046 25 43C25 41.8954 24.1046 41 23 41C21.8954 41 21 41.8954 21 43C21 44.1046 21.8954 45 23 45Z" fill="#9BC9FF" id="id_105"></path>
<path d="M25.636 51.364C26.7406 51.364 27.636 50.4686 27.636 49.364C27.636 48.2594 26.7406 47.364 25.636 47.364C24.5314 47.364 23.636 48.2594 23.636 49.364C23.636 50.4686 24.5314 51.364 25.636 51.364Z" fill="#9BC9FF" id="id_106"></path>
<path d="M32 54C33.1046 54 34 53.1046 34 52C34 50.8954 33.1046 50 32 50C30.8954 50 30 50.8954 30 52C30 53.1046 30.8954 54 32 54Z" fill="#9BC9FF" id="id_107"></path>
<path d="M38.364 51.364C39.4686 51.364 40.364 50.4686 40.364 49.364C40.364 48.2594 39.4686 47.364 38.364 47.364C37.2594 47.364 36.364 48.2594 36.364 49.364C36.364 50.4686 37.2594 51.364 38.364 51.364Z" fill="#9BC9FF" id="id_108"></path>
<path d="M41 45C42.1046 45 43 44.1046 43 43C43 41.8954 42.1046 41 41 41C39.8954 41 39 41.8954 39 43C39 44.1046 39.8954 45 41 45Z" fill="#9BC9FF" id="id_109"></path>
<path d="M38.364 38.636C39.4686 38.636 40.364 37.7406 40.364 36.636C40.364 35.5314 39.4686 34.636 38.364 34.636C37.2594 34.636 36.364 35.5314 36.364 36.636C36.364 37.7406 37.2594 38.636 38.364 38.636Z" fill="#9BC9FF" id="id_110"></path>
<path d="M43 2H21C15.9623 2.0045 11.1322 4.00773 7.56994 7.56994C4.00773 11.1322 2.0045 15.9623 2 21V25C2.00237 25.7949 2.31921 26.5566 2.8813 27.1187C3.4434 27.6808 4.20508 27.9976 5 28H17C17.7949 27.9976 18.5566 27.6808 19.1187 27.1187C19.6808 26.5566 19.9976 25.7949 20 25V19C20 17.6739 20.5268 16.4021 21.4645 15.4645C22.4021 14.5268 23.6739 14 25 14H39C40.3261 14 41.5979 14.5268 42.5355 15.4645C43.4732 16.4021 44 17.6739 44 19V25C44.0024 25.7949 44.3192 26.5566 44.8813 27.1187C45.4434 27.6808 46.2051 27.9976 47 28H59C59.7949 27.9976 60.5566 27.6808 61.1187 27.1187C61.6808 26.5566 61.9976 25.7949 62 25V21C61.9955 15.9623 59.9923 11.1322 56.4301 7.56994C52.8678 4.00773 48.0377 2.0045 43 2V2ZM18 25C18 25.2652 17.8946 25.5196 17.7071 25.7071C17.5196 25.8946 17.2652 26 17 26H5C4.73478 26 4.48043 25.8946 4.29289 25.7071C4.10536 25.5196 4 25.2652 4 25V22H18V25ZM39 12H25C23.1441 12.0021 21.3649 12.7403 20.0526 14.0526C18.7403 15.3649 18.0021 17.1441 18 19V20H4.03C4.28974 15.6737 6.19014 11.6095 9.34358 8.63631C12.497 5.66312 16.6659 4.00494 21 4H43C47.3341 4.00494 51.503 5.66312 54.6564 8.63631C57.8099 11.6095 59.7103 15.6737 59.97 20H46V19C45.9979 17.1441 45.2597 15.3649 43.9474 14.0526C42.6351 12.7403 40.8559 12.0021 39 12V12ZM60 25C60 25.2652 59.8946 25.5196 59.7071 25.7071C59.5196 25.8946 59.2652 26 59 26H47C46.7348 26 46.4804 25.8946 46.2929 25.7071C46.1054 25.5196 46 25.2652 46 25V22H60V25Z" fill="#000000" id="id_111"></path>
<path d="M32 28C29.0333 28 26.1332 28.8797 23.6665 30.528C21.1997 32.1762 19.2771 34.5189 18.1418 37.2598C17.0065 40.0006 16.7094 43.0166 17.2882 45.9264C17.867 48.8361 19.2956 51.5088 21.3934 53.6066C23.4912 55.7044 26.1639 57.133 29.0737 57.7118C31.9834 58.2906 34.9994 57.9935 37.7403 56.8582C40.4811 55.7229 42.8238 53.8003 44.4721 51.3336C46.1203 48.8668 47 45.9667 47 43C46.9955 39.0231 45.4137 35.2104 42.6016 32.3984C39.7896 29.5863 35.9769 28.0045 32 28V28ZM32 56C29.4288 56 26.9154 55.2376 24.7776 53.8091C22.6398 52.3806 20.9735 50.3503 19.9896 47.9749C19.0056 45.5994 18.7482 42.9856 19.2498 40.4638C19.7514 37.9421 20.9895 35.6257 22.8076 33.8076C24.6257 31.9895 26.9421 30.7514 29.4638 30.2498C31.9856 29.7482 34.5995 30.0056 36.9749 30.9896C39.3503 31.9735 41.3807 33.6397 42.8091 35.7776C44.2376 37.9154 45 40.4288 45 43C44.996 46.4466 43.6251 49.7509 41.188 52.188C38.7509 54.6251 35.4466 55.996 32 56V56Z" fill="#000000" id="id_112"></path>
<path d="M32 31C31.4067 31 30.8266 31.1759 30.3333 31.5056C29.8399 31.8352 29.4554 32.3038 29.2284 32.852C29.0013 33.4001 28.9419 34.0033 29.0576 34.5853C29.1734 35.1672 29.4591 35.7018 29.8787 36.1213C30.2982 36.5409 30.8328 36.8266 31.4147 36.9424C31.9967 37.0581 32.5999 36.9987 33.148 36.7716C33.6962 36.5446 34.1648 36.1601 34.4944 35.6667C34.8241 35.1734 35 34.5933 35 34C35 33.2044 34.6839 32.4413 34.1213 31.8787C33.5587 31.3161 32.7957 31 32 31ZM32 35C31.8022 35 31.6089 34.9414 31.4444 34.8315C31.28 34.7216 31.1518 34.5654 31.0761 34.3827C31.0004 34.2 30.9806 33.9989 31.0192 33.8049C31.0578 33.6109 31.153 33.4327 31.2929 33.2929C31.4327 33.153 31.6109 33.0578 31.8049 33.0192C31.9989 32.9806 32.2 33.0004 32.3827 33.0761C32.5654 33.1518 32.7216 33.28 32.8315 33.4444C32.9414 33.6089 33 33.8022 33 34C33 34.2652 32.8946 34.5196 32.7071 34.7071C32.5196 34.8946 32.2652 35 32 35Z" fill="#000000" id="id_113"></path>
<path d="M25.636 39.636C26.2293 39.6359 26.8092 39.4599 27.3024 39.1302C27.7956 38.8006 28.18 38.3321 28.4071 37.784C28.6341 37.2359 28.6935 36.6328 28.5778 36.0509C28.4621 35.469 28.1764 34.9346 27.757 34.515C27.1857 33.9694 26.426 33.6649 25.636 33.6649C24.846 33.6649 24.0864 33.9694 23.515 34.515C23.0956 34.9346 22.81 35.469 22.6943 36.0509C22.5786 36.6328 22.638 37.2359 22.865 37.784C23.092 38.3321 23.4764 38.8006 23.9696 39.1302C24.4629 39.4599 25.0428 39.6359 25.636 39.636V39.636ZM24.929 35.929C25.1165 35.7415 25.3709 35.6362 25.636 35.6362C25.9012 35.6362 26.1555 35.7415 26.343 35.929C26.436 36.0219 26.5098 36.1322 26.5601 36.2536C26.6104 36.375 26.6363 36.5051 26.6363 36.6365C26.6363 36.7679 26.6104 36.898 26.5601 37.0194C26.5098 37.1408 26.436 37.2511 26.343 37.344C26.1527 37.5257 25.8997 37.6271 25.6365 37.6271C25.3734 37.6271 25.1203 37.5257 24.93 37.344C24.837 37.2512 24.7631 37.141 24.7127 37.0196C24.6623 36.8982 24.6363 36.7681 24.6362 36.6367C24.6361 36.5053 24.6619 36.3751 24.7122 36.2537C24.7624 36.1323 24.8361 36.0219 24.929 35.929V35.929Z" fill="#000000" id="id_114"></path>
<path d="M26 43C26 42.4067 25.8241 41.8266 25.4944 41.3333C25.1648 40.8399 24.6962 40.4554 24.1481 40.2284C23.5999 40.0013 22.9967 39.9419 22.4147 40.0576C21.8328 40.1734 21.2982 40.4591 20.8787 40.8787C20.4591 41.2982 20.1734 41.8328 20.0576 42.4147C19.9419 42.9967 20.0013 43.5999 20.2284 44.148C20.4554 44.6962 20.8399 45.1648 21.3333 45.4944C21.8266 45.8241 22.4067 46 23 46C23.7957 46 24.5587 45.6839 25.1213 45.1213C25.6839 44.5587 26 43.7957 26 43ZM22 43C22 42.8022 22.0586 42.6089 22.1685 42.4444C22.2784 42.28 22.4346 42.1518 22.6173 42.0761C22.8 42.0004 23.0011 41.9806 23.1951 42.0192C23.3891 42.0578 23.5673 42.153 23.7071 42.2929C23.847 42.4327 23.9422 42.6109 23.9808 42.8049C24.0194 42.9989 23.9996 43.2 23.9239 43.3827C23.8482 43.5654 23.72 43.7216 23.5556 43.8315C23.3911 43.9414 23.1978 44 23 44C22.7348 44 22.4804 43.8946 22.2929 43.7071C22.1054 43.5196 22 43.2652 22 43Z" fill="#000000" id="id_115"></path>
<path d="M23.515 47.243C23.0955 47.6626 22.8098 48.1971 22.6941 48.7791C22.5784 49.361 22.6378 49.9642 22.8649 50.5123C23.092 51.0605 23.4765 51.529 23.9698 51.8586C24.4632 52.1882 25.0432 52.3641 25.6365 52.3641C26.2298 52.3641 26.8098 52.1882 27.3031 51.8586C27.7965 51.529 28.181 51.0605 28.4081 50.5123C28.6351 49.9642 28.6946 49.361 28.5789 48.7791C28.4632 48.1971 28.1775 47.6626 27.758 47.243C27.1866 46.6971 26.4267 46.3924 25.6365 46.3924C24.8462 46.3924 24.0864 46.6971 23.515 47.243V47.243ZM26.343 50.071C26.1526 50.253 25.8994 50.3546 25.636 50.3546C25.3726 50.3546 25.1193 50.253 24.929 50.071C24.7891 49.9312 24.6938 49.753 24.6552 49.559C24.6166 49.365 24.6364 49.1639 24.7121 48.9812C24.7877 48.7984 24.9159 48.6422 25.0804 48.5323C25.2448 48.4224 25.4382 48.3638 25.636 48.3638C25.8338 48.3638 26.0271 48.4224 26.1916 48.5323C26.356 48.6422 26.4842 48.7984 26.5599 48.9812C26.6356 49.1639 26.6553 49.365 26.6167 49.559C26.5781 49.753 26.4829 49.9312 26.343 50.071Z" fill="#000000" id="id_116"></path>
<path d="M32 49C31.4067 49 30.8266 49.1759 30.3333 49.5056C29.8399 49.8352 29.4554 50.3038 29.2284 50.852C29.0013 51.4001 28.9419 52.0033 29.0576 52.5853C29.1734 53.1672 29.4591 53.7018 29.8787 54.1213C30.2982 54.5409 30.8328 54.8266 31.4147 54.9424C31.9967 55.0581 32.5999 54.9987 33.148 54.7716C33.6962 54.5446 34.1648 54.1601 34.4944 53.6667C34.8241 53.1734 35 52.5933 35 52C35 51.2044 34.6839 50.4413 34.1213 49.8787C33.5587 49.3161 32.7957 49 32 49ZM32 53C31.8022 53 31.6089 52.9414 31.4444 52.8315C31.28 52.7216 31.1518 52.5654 31.0761 52.3827C31.0004 52.2 30.9806 51.9989 31.0192 51.8049C31.0578 51.6109 31.153 51.4327 31.2929 51.2929C31.4327 51.153 31.6109 51.0578 31.8049 51.0192C31.9989 50.9806 32.2 51.0004 32.3827 51.0761C32.5654 51.1518 32.7216 51.28 32.8315 51.4444C32.9414 51.6089 33 51.8022 33 52C33 52.2652 32.8946 52.5196 32.7071 52.7071C32.5196 52.8946 32.2652 53 32 53Z" fill="#000000" id="id_117"></path>
<path d="M36.243 47.243C35.8234 47.6625 35.5376 48.1971 35.4217 48.779C35.3059 49.361 35.3653 49.9643 35.5923 50.5125C35.8193 51.0607 36.2038 51.5293 36.6972 51.859C37.1906 52.1887 37.7706 52.3646 38.364 52.3646C38.9574 52.3646 39.5375 52.1887 40.0308 51.859C40.5242 51.5293 40.9087 51.0607 41.1357 50.5125C41.3628 49.9643 41.4221 49.361 41.3063 48.779C41.1905 48.1971 40.9047 47.6625 40.485 47.243C39.9138 46.6971 39.1541 46.3925 38.364 46.3925C37.5739 46.3925 36.8142 46.6971 36.243 47.243V47.243ZM39.071 50.071C38.8808 50.2533 38.6275 50.355 38.364 50.355C38.1005 50.355 37.8473 50.2533 37.657 50.071C37.5171 49.9312 37.4219 49.753 37.3833 49.559C37.3446 49.365 37.3644 49.1639 37.4401 48.9812C37.5158 48.7984 37.644 48.6422 37.8084 48.5323C37.9729 48.4224 38.1662 48.3638 38.364 48.3638C38.5618 48.3638 38.7552 48.4224 38.9196 48.5323C39.0841 48.6422 39.2122 48.7984 39.2879 48.9812C39.3636 49.1639 39.3834 49.365 39.3448 49.559C39.3062 49.753 39.2109 49.9312 39.071 50.071Z" fill="#000000" id="id_118"></path>
<path d="M38 43C38 43.5933 38.1759 44.1734 38.5056 44.6667C38.8352 45.1601 39.3038 45.5446 39.852 45.7716C40.4001 45.9987 41.0033 46.0581 41.5853 45.9424C42.1672 45.8266 42.7018 45.5409 43.1213 45.1213C43.5409 44.7018 43.8266 44.1672 43.9424 43.5853C44.0581 43.0033 43.9987 42.4001 43.7716 41.852C43.5446 41.3038 43.1601 40.8352 42.6667 40.5056C42.1734 40.1759 41.5933 40 41 40C40.2044 40 39.4413 40.3161 38.8787 40.8787C38.3161 41.4413 38 42.2044 38 43ZM42 43C42 43.1978 41.9414 43.3911 41.8315 43.5556C41.7216 43.72 41.5654 43.8482 41.3827 43.9239C41.2 43.9996 40.9989 44.0194 40.8049 43.9808C40.6109 43.9422 40.4327 43.847 40.2929 43.7071C40.153 43.5673 40.0578 43.3891 40.0192 43.1951C39.9806 43.0011 40.0004 42.8 40.0761 42.6173C40.1518 42.4346 40.28 42.2784 40.4444 42.1685C40.6089 42.0586 40.8022 42 41 42C41.2652 42 41.5196 42.1054 41.7071 42.2929C41.8946 42.4804 42 42.7348 42 43Z" fill="#000000" id="id_119"></path>
<path d="M36.243 34.515C35.8234 34.9345 35.5376 35.4691 35.4217 36.051C35.3059 36.633 35.3653 37.2362 35.5923 37.7845C35.8193 38.3327 36.2038 38.8013 36.6972 39.131C37.1906 39.4607 37.7706 39.6366 38.364 39.6366C38.9574 39.6366 39.5375 39.4607 40.0308 39.131C40.5242 38.8013 40.9087 38.3327 41.1357 37.7845C41.3628 37.2362 41.4221 36.633 41.3063 36.051C41.1905 35.4691 40.9047 34.9345 40.485 34.515C39.9134 33.9698 39.1539 33.6657 38.364 33.6657C37.5741 33.6657 36.8146 33.9698 36.243 34.515ZM39.071 37.343C38.8809 37.5255 38.6276 37.6274 38.364 37.6274C38.1005 37.6274 37.8471 37.5255 37.657 37.343C37.5172 37.2031 37.422 37.025 37.3834 36.831C37.3449 36.6371 37.3647 36.436 37.4403 36.2533C37.516 36.0706 37.6441 35.9145 37.8086 35.8046C37.973 35.6947 38.1663 35.636 38.364 35.636C38.5618 35.636 38.7551 35.6947 38.9195 35.8046C39.0839 35.9145 39.212 36.0706 39.2877 36.2533C39.3634 36.436 39.3832 36.6371 39.3446 36.831C39.306 37.025 39.2108 37.2031 39.071 37.343V37.343Z" fill="#000000" id="id_120"></path>
<path d="M61.22 55.49L55.06 32.12C54.8741 31.5044 54.4942 30.9654 53.977 30.5834C53.4598 30.2013 52.833 29.9967 52.19 30H48.75C47.723 30.002 46.7082 29.7772 45.7782 29.3415C44.8482 28.9059 44.0259 28.2703 43.37 27.48L41.97 25.8C41.2123 24.8961 40.161 24.2873 39 24.08V22C39 21.2044 38.6839 20.4413 38.1213 19.8787C37.5587 19.3161 36.7956 19 36 19C35.2043 19 34.4413 19.3161 33.8787 19.8787C33.316 20.4413 33 21.2044 33 22V24H31V22C31 21.2044 30.6839 20.4413 30.1213 19.8787C29.5587 19.3161 28.7956 19 28 19C27.2043 19 26.4413 19.3161 25.8787 19.8787C25.316 20.4413 25 21.2044 25 22V24.08C23.8389 24.2873 22.7877 24.8961 22.03 25.8L20.63 27.48C19.9741 28.2703 19.1517 28.9059 18.2217 29.3415C17.2917 29.7772 16.277 30.002 15.25 30H11.81C11.1605 29.9985 10.5282 30.2085 10.0086 30.5982C9.48904 30.9879 9.11042 31.5361 8.92997 32.16L2.79997 55.42C2.55088 56.172 2.48383 56.9725 2.60434 57.7555C2.72485 58.5385 3.02947 59.2817 3.49317 59.9241C3.95687 60.5664 4.5664 61.0895 5.27165 61.4504C5.97691 61.8113 6.75774 61.9997 7.54997 62H56.45C57.2362 62.0005 58.0115 61.8157 58.7129 61.4604C59.4142 61.1051 60.0219 60.5894 60.4866 59.9552C60.9513 59.321 61.2599 58.5861 61.3873 57.8103C61.5148 57.0345 61.4574 56.2395 61.22 55.49V55.49ZM35 22C35 21.7348 35.1053 21.4804 35.2929 21.2929C35.4804 21.1054 35.7348 21 36 21C36.2652 21 36.5195 21.1054 36.7071 21.2929C36.8946 21.4804 37 21.7348 37 22V24H35V22ZM27 22C27 21.7348 27.1053 21.4804 27.2929 21.2929C27.4804 21.1054 27.7348 21 28 21C28.2652 21 28.5195 21.1054 28.7071 21.2929C28.8946 21.4804 29 21.7348 29 22V24H27V22ZM58.89 58.75C58.6144 59.1399 58.2486 59.4573 57.8236 59.675C57.3987 59.8927 56.9274 60.0042 56.45 60H7.54997C7.0699 60.0003 6.59677 59.8853 6.17034 59.6648C5.74391 59.4442 5.37664 59.1246 5.09936 58.7327C4.82209 58.3408 4.64292 57.8881 4.5769 57.4125C4.51088 56.937 4.55995 56.4526 4.71997 56L10.85 32.71C10.9123 32.5041 11.0394 32.3239 11.2124 32.196C11.3853 32.0681 11.5949 31.9994 11.81 32H15.25C16.5706 32.0014 17.8753 31.7119 19.0714 31.1519C20.2674 30.5919 21.3253 29.7752 22.17 28.76L23.57 27.08C23.8497 26.7412 24.201 26.4686 24.5987 26.2818C24.9964 26.0951 25.4306 25.9988 25.87 26H38.13C38.5693 25.9988 39.0035 26.0951 39.4012 26.2818C39.7989 26.4686 40.1503 26.7412 40.43 27.08L41.83 28.76C42.6746 29.7752 43.7325 30.5919 44.9286 31.1519C46.1246 31.7119 47.4293 32.0014 48.75 32H52.19C52.3988 31.9971 52.6031 32.0603 52.7738 32.1807C52.9445 32.301 53.0726 32.4723 53.14 32.67L59.3 56.06C59.4533 56.5082 59.4962 56.9869 59.4248 57.4553C59.3534 57.9236 59.1699 58.3678 58.89 58.75V58.75Z" fill="#000000" id="id_121"></path>
</svg>