<svg xmlns:dc="http://purl.org/dc/elements/1.1/" xmlns:cc="http://creativecommons.org/ns#" xmlns:rdf="http://www.w3.org/1999/02/22-rdf-syntax-ns#" xmlns:svg="http://www.w3.org/2000/svg" xmlns="http://www.w3.org/2000/svg" xmlns:sodipodi="http://sodipodi.sourceforge.net/DTD/sodipodi-0.dtd" xmlns:inkscape="http://www.inkscape.org/namespaces/inkscape" width="64" height="64" viewBox="0 0 16.933333 16.933334" version="1.1" id="svg2150" inkscape:version="1.0 (4035a4fb49, 2020-05-01)" sodipodi:docname="cow, beef, animal, fauna.svg">
<defs id="defs2144"></defs>
<sodipodi:namedview id="base" pagecolor="#ffffff" bordercolor="#666666" borderopacity="1.0" inkscape:pageopacity="0.0" inkscape:pageshadow="2" inkscape:zoom="4.1810772" inkscape:cx="55.58582" inkscape:cy="6.5364194" inkscape:document-units="px" inkscape:current-layer="layer1" inkscape:document-rotation="0" showgrid="false" units="px" inkscape:window-width="1366" inkscape:window-height="706" inkscape:window-x="-8" inkscape:window-y="-8" inkscape:window-maximized="1"></sodipodi:namedview>
<metadata id="metadata2147">
<rdf:rdf>
<cc:work rdf:about="">
<dc:format>image/svg+xml</dc:format>
<dc:type rdf:resource="http://purl.org/dc/dcmitype/StillImage"></dc:type>
<dc:title></dc:title>
</cc:work>
</rdf:rdf>
</metadata>
<g inkscape:label="Layer 1" inkscape:groupmode="layer" id="layer1">
<g transform="translate(60.854166,-249.37499)" style="display:inline" id="g1255">
<path sodipodi:nodetypes="ccccsssscccssssc" d="m -56.091666,259.42915 h 7.408334 m 0,0 c 0.579792,0 1.120656,0.15601 1.5875,0.42529 v -5.15162 c 0,-1.48579 -1.196221,-2.68201 -2.682007,-2.68201 h -5.21932 c -1.485786,0 -2.682007,1.19622 -2.682007,2.68201 v 5.15162 c 0.466844,-0.26928 1.007707,-0.42529 1.5875,-0.42529 m -1.5875,0.42529 c -0.949441,0.54765 -1.5875,1.57056 -1.5875,2.74971 0,1.75895 1.416058,3.175 3.175,3.175 h 7.408334 c 1.758942,0 3.175,-1.41605 3.175,-3.175 0,-1.17915 -0.63806,-2.20206 -1.5875,-2.74971" style="fill:#ecf0f1;fill-opacity:1;fill-rule:evenodd;stroke:none;stroke-width:1.05833;stroke-linecap:round;stroke-linejoin:round;stroke-opacity:1;stop-color:#000000" id="path1209"></path>
<path sodipodi:nodetypes="ccc" id="path1212" d="m -56.620833,252.54998 c -1.266022,-0.36733 -2.498242,-0.33797 -3.704166,0 0.167178,1.29523 1.138731,2.12536 2.645833,2.64583" style="fill:#ecf0f1;fill-opacity:1;fill-rule:evenodd;stroke:none;stroke-width:1.05833;stroke-linecap:round;stroke-linejoin:round;stroke-opacity:1;stop-color:#000000"></path>
<path style="fill:#ecf0f1;fill-opacity:1;fill-rule:evenodd;stroke:none;stroke-width:1.05833;stroke-linecap:round;stroke-linejoin:round;stroke-opacity:1;stop-color:#000000" d="m -48.154165,252.54998 c 1.266022,-0.36733 2.498242,-0.33797 3.704166,0 -0.167178,1.29523 -1.138731,2.12536 -2.645833,2.64583" id="path1214" sodipodi:nodetypes="ccc"></path>
<path sodipodi:nodetypes="ccc" id="path1205" d="m -54.768749,251.75622 -1.5875,-1.85208 c -0.6638,0.88027 -1.244137,1.72717 -0.264584,2.64584" style="fill: rgb(102, 34, 40); fill-opacity: 1; fill-rule: evenodd; stroke: none; stroke-width: 1.05833; stroke-linecap: round; stroke-linejoin: round; stroke-opacity: 1; stop-color: rgb(0, 0, 0);"></path>
<path style="fill: rgb(97, 31, 38); fill-opacity: 1; fill-rule: evenodd; stroke: none; stroke-width: 1.05833; stroke-linecap: round; stroke-linejoin: round; stroke-opacity: 1; stop-color: rgb(0, 0, 0);" d="m -50.006249,251.75622 1.5875,-1.85208 c 0.6638,0.88027 1.244137,1.72717 0.264583,2.64583" id="path1207" sodipodi:nodetypes="ccc"></path>
<path id="path1216" d="m -54.238532,259.42914 -2.742686,0.13146 -1.922442,1.35853 -0.281958,2.2044 0.974037,1.64048 1.614852,1.0253 9.048301,-0.12816 2.101871,-2.17877 -0.17943,-1.99934 -1.537954,-1.64048 -1.896811,-0.58955 z" style="fill: rgb(224, 170, 176); fill-opacity: 1; fill-rule: evenodd; stroke: none; stroke-width: 1.05833; stroke-linejoin: round; stroke-opacity: 1; stop-color: rgb(0, 0, 0);"></path>
<path id="rect950" style="fill: none; fill-rule: evenodd; stroke: rgb(128, 128, 128); stroke-width: 1.05833; stroke-linecap: round; stroke-linejoin: round; stroke-opacity: 1; stop-color: rgb(0, 0, 0);" d="m -56.091666,259.42915 h 7.408334 m 0,0 c 0.579792,0 1.120656,0.15601 1.5875,0.42529 v -5.15162 c 0,-1.48579 -1.196221,-2.68201 -2.682007,-2.68201 h -5.21932 c -1.485786,0 -2.682007,1.19622 -2.682007,2.68201 v 5.15162 c 0.466844,-0.26928 1.007707,-0.42529 1.5875,-0.42529 m -1.5875,0.42529 c -0.949441,0.54765 -1.5875,1.57056 -1.5875,2.74971 0,1.75895 1.416058,3.175 3.175,3.175 h 7.408334 c 1.758942,0 3.175,-1.41605 3.175,-3.175 0,-1.17915 -0.63806,-2.20206 -1.5875,-2.74971" sodipodi:nodetypes="ccccsssscccssssc"></path>
<path style="fill: none; fill-rule: evenodd; stroke: rgb(92, 35, 41); stroke-width: 1.05833; stroke-linecap: round; stroke-linejoin: round; stroke-opacity: 1; stop-color: rgb(0, 0, 0);" d="m -54.768749,251.75622 -1.5875,-1.85208 c -0.6638,0.88027 -1.244137,1.72717 -0.264584,2.64584" id="path954" sodipodi:nodetypes="ccc"></path>
<path sodipodi:nodetypes="ccc" id="path956" d="m -50.006249,251.75622 1.5875,-1.85208 c 0.6638,0.88027 1.244137,1.72717 0.264583,2.64583" style="fill: none; fill-rule: evenodd; stroke: rgb(94, 33, 39); stroke-width: 1.05833; stroke-linecap: round; stroke-linejoin: round; stroke-opacity: 1; stop-color: rgb(0, 0, 0);"></path>
<path style="fill: none; fill-rule: evenodd; stroke: rgb(125, 125, 125); stroke-width: 1.05833; stroke-linecap: round; stroke-linejoin: round; stroke-opacity: 1; stop-color: rgb(0, 0, 0);" d="m -56.620833,252.54998 c -1.266022,-0.36733 -2.498242,-0.33797 -3.704166,0 0.167178,1.29523 1.138731,2.12536 2.645833,2.64583" id="path958" sodipodi:nodetypes="ccc"></path>
<path sodipodi:nodetypes="ccc" id="path960" d="m -48.154165,252.54998 c 1.266022,-0.36733 2.498242,-0.33797 3.704166,0 -0.167178,1.29523 -1.138731,2.12536 -2.645833,2.64583" style="fill: none; fill-rule: evenodd; stroke: rgb(128, 128, 128); stroke-width: 1.05833; stroke-linecap: round; stroke-linejoin: round; stroke-opacity: 1; stop-color: rgb(0, 0, 0);"></path>
<circle r="1.0583334" cy="262.60413" cx="-55.033333" id="circle1234" style="fill: rgb(230, 175, 180); fill-opacity: 1; fill-rule: evenodd; stroke: none; stroke-width: 1.05833; stroke-linecap: butt; stroke-linejoin: round; stroke-opacity: 1; stop-color: rgb(0, 0, 0);"></circle>
<path id="path93" d="m -55.033203,261.01758 c -0.870487,0 -1.587896,0.71545 -1.587891,1.58594 3e-6,0.87048 0.71741,1.58789 1.587891,1.58789 0.870482,0 1.587888,-0.71741 1.587891,-1.58789 5e-6,-0.87049 -0.717404,-1.58594 -1.587891,-1.58594 z m 0,1.05664 c 0.298521,0 0.529299,0.23077 0.529297,0.5293 -10e-7,0.29851 -0.230778,0.52929 -0.529297,0.52929 -0.298519,0 -0.529296,-0.23078 -0.529297,-0.52929 -2e-6,-0.29853 0.230776,-0.5293 0.529297,-0.5293 z" style="color: rgb(0, 0, 0); font: medium sans-serif; font-feature-settings: normal; font-variation-settings: normal; text-indent: 0px; text-align: start; text-decoration: none solid rgb(0, 0, 0); letter-spacing: normal; word-spacing: normal; text-transform: none; writing-mode: lr-tb; direction: ltr; text-orientation: mixed; dominant-baseline: auto; baseline-shift: baseline; text-anchor: start; white-space: normal; shape-margin: 0px; inline-size: 0px; clip-rule: nonzero; display: inline; overflow: visible; visibility: visible; opacity: 1; isolation: auto; mix-blend-mode: normal; color-interpolation: srgb; color-interpolation-filters: linearrgb; vector-effect: none; fill: rgb(209, 109, 119); fill-opacity: 1; fill-rule: evenodd; stroke: none; stroke-width: 1.05833; stroke-linecap: butt; stroke-linejoin: round; stroke-miterlimit: 4; stroke-dasharray: none; stroke-dashoffset: 0; stroke-opacity: 1; color-rendering: auto; image-rendering: auto; shape-rendering: auto; text-rendering: auto; stop-color: rgb(0, 0, 0); stop-opacity: 1;"></path>
<circle style="fill: rgb(227, 173, 178); fill-opacity: 1; fill-rule: evenodd; stroke: none; stroke-width: 1.05833; stroke-linecap: butt; stroke-linejoin: round; stroke-miterlimit: 4; stroke-dasharray: none; stroke-opacity: 1; stop-color: rgb(0, 0, 0);" id="circle1236" cx="-49.741665" cy="262.60413" r="1.0583334"></circle>
<path id="path97" d="m -49.742188,261.01758 c -0.870486,0 -1.587896,0.71545 -1.58789,1.58594 3e-6,0.87048 0.717409,1.58789 1.58789,1.58789 0.870482,0 1.587888,-0.71741 1.587891,-1.58789 6e-6,-0.87049 -0.717403,-1.58594 -1.587891,-1.58594 z m 0,1.05664 c 0.298521,0 0.529299,0.23077 0.529297,0.5293 -10e-7,0.29851 -0.230778,0.52929 -0.529297,0.52929 -0.298518,0 -0.529295,-0.23078 -0.529296,-0.52929 -2e-6,-0.29853 0.230776,-0.5293 0.529296,-0.5293 z" style="color: rgb(0, 0, 0); font: medium sans-serif; font-feature-settings: normal; font-variation-settings: normal; text-indent: 0px; text-align: start; text-decoration: none solid rgb(0, 0, 0); letter-spacing: normal; word-spacing: normal; text-transform: none; writing-mode: lr-tb; direction: ltr; text-orientation: mixed; dominant-baseline: auto; baseline-shift: baseline; text-anchor: start; white-space: normal; shape-margin: 0px; inline-size: 0px; clip-rule: nonzero; display: inline; overflow: visible; visibility: visible; opacity: 1; isolation: auto; mix-blend-mode: normal; color-interpolation: srgb; color-interpolation-filters: linearrgb; vector-effect: none; fill: rgb(204, 106, 116); fill-opacity: 1; fill-rule: evenodd; stroke: none; stroke-width: 1.05833; stroke-linecap: butt; stroke-linejoin: round; stroke-miterlimit: 4; stroke-dasharray: none; stroke-dashoffset: 0; stroke-opacity: 1; color-rendering: auto; image-rendering: auto; shape-rendering: auto; text-rendering: auto; stop-color: rgb(0, 0, 0); stop-opacity: 1;"></path>
<circle r="1.0583334" cy="262.60413" cx="-55.033333" id="circle1230" style="fill:none;fill-rule:evenodd;stroke:none;stroke-width:1.05833;stroke-linecap:butt;stroke-linejoin:round;stroke-opacity:1;stop-color:#000000"></circle>
<circle style="fill:none;fill-rule:evenodd;stroke:none;stroke-width:1.05833;stroke-linecap:butt;stroke-linejoin:round;stroke-miterlimit:4;stroke-dasharray:none;stroke-opacity:1;stop-color:#000000" id="circle1232" cx="-49.741665" cy="262.60413" r="1.0583334"></circle>
</g>
</g>
</svg>